<svg xmlns="http://www.w3.org/2000/svg" width="187.187" height="69.616" viewBox="0 0 187.187 69.616"><defs><style>.a{fill:#ae4a2a;}.b{fill:#abbfb5;}</style></defs><g transform="translate(-260.46 -6.357)"><g transform="translate(260.46 6.357)"><g transform="translate(61.59 34.808)"><path class="a" d="M365.138,48.352v2.317h-1.39a3.406,3.406,0,0,1-2.316-.729,3.01,3.01,0,0,1-.831-2.368V44.026h-1.086V41.758H360.6V39.585h2.732v2.173h1.789v2.268h-1.789V47.6a.75.75,0,0,0,.192.575.938.938,0,0,0,.637.176Z" transform="translate(-359.515 -37.871)"/><path class="a" d="M375.3,42.6a3.978,3.978,0,0,1,.926,2.788v5.207h-2.716v-4.84a1.952,1.952,0,0,0-.464-1.39,1.815,1.815,0,0,0-2.492,0,1.955,1.955,0,0,0-.463,1.39v4.84h-2.732V38.775h2.732V42.88a2.919,2.919,0,0,1,1.134-.943,3.61,3.61,0,0,1,1.614-.352A3.169,3.169,0,0,1,375.3,42.6" transform="translate(-360.215 -37.799)"/><path class="a" d="M387.478,47.066H381.3a1.859,1.859,0,0,0,.535,1.27,1.632,1.632,0,0,0,1.158.438,1.435,1.435,0,0,0,1.422-.862h2.907A4.013,4.013,0,0,1,385.05,50.6a4.676,4.676,0,0,1-1.964.4,4.774,4.774,0,0,1-2.332-.559,3.975,3.975,0,0,1-1.6-1.6,4.928,4.928,0,0,1-.576-2.428,4.987,4.987,0,0,1,.567-2.427,3.919,3.919,0,0,1,1.589-1.6,5.173,5.173,0,0,1,4.645-.015,3.894,3.894,0,0,1,1.573,1.548,4.7,4.7,0,0,1,.567,2.349,6.889,6.889,0,0,1-.048.8m-2.748-1.517a1.4,1.4,0,0,0-.479-1.118,1.761,1.761,0,0,0-1.2-.415,1.727,1.727,0,0,0-1.158.4,1.775,1.775,0,0,0-.583,1.134Z" transform="translate(-361.217 -38.072)"/><path class="a" d="M397.535,41.938a3.434,3.434,0,0,1,1.646-.383,3.676,3.676,0,0,1,2,.559,3.873,3.873,0,0,1,1.413,1.6,5.882,5.882,0,0,1,0,4.832,3.924,3.924,0,0,1-1.414,1.616,3.661,3.661,0,0,1-2,.567,3.454,3.454,0,0,1-1.646-.376,2.908,2.908,0,0,1-1.1-1V50.6H393.7V38.776h2.732v4.169a2.811,2.811,0,0,1,1.1-1.006m2.228,2.58a1.871,1.871,0,0,0-1.4-.583,1.839,1.839,0,0,0-1.382.59,2.579,2.579,0,0,0,0,3.227,1.912,1.912,0,0,0,2.7.06c.024-.022.046-.045.067-.068a2.241,2.241,0,0,0,.575-1.622,2.206,2.206,0,0,0-.566-1.606" transform="translate(-362.568 -37.799)"/><path class="a" d="M405.786,40.237a1.368,1.368,0,0,1-.455-1.046,1.39,1.39,0,0,1,.455-1.062,1.817,1.817,0,0,1,2.332,0,1.387,1.387,0,0,1,.455,1.062,1.373,1.373,0,0,1-.455,1.046,1.635,1.635,0,0,1-1.158.423,1.657,1.657,0,0,1-1.174-.423M408.318,50.5h-2.732V41.586h2.732Z" transform="translate(-363.606 -37.703)"/><path class="a" d="M415.769,42.21a2.814,2.814,0,0,1,1.093,1.006V41.955h2.732v8.9a5.015,5.015,0,0,1-.487,2.228,3.713,3.713,0,0,1-1.485,1.589,4.815,4.815,0,0,1-2.484.591,5.169,5.169,0,0,1-3.21-.934,3.529,3.529,0,0,1-1.406-2.532h2.7a1.3,1.3,0,0,0,.607.807,2.218,2.218,0,0,0,1.184.3,1.861,1.861,0,0,0,1.35-.487,2.1,2.1,0,0,0,.5-1.557V49.591a3.044,3.044,0,0,1-1.1,1.015,3.34,3.34,0,0,1-1.646.392,3.654,3.654,0,0,1-2-.567,3.924,3.924,0,0,1-1.413-1.613,5.882,5.882,0,0,1,0-4.832,3.867,3.867,0,0,1,1.413-1.6,3.676,3.676,0,0,1,2-.559,3.429,3.429,0,0,1,1.653.383M416.3,44.8a1.919,1.919,0,0,0-2.714-.057l-.049.049a2.208,2.208,0,0,0-.567,1.606,2.261,2.261,0,0,0,.567,1.622,1.9,1.9,0,0,0,2.688.083l.075-.075a2.579,2.579,0,0,0,0-3.227" transform="translate(-364.04 -38.072)"/><path class="a" d="M427.683,42.21a2.814,2.814,0,0,1,1.093,1.006V41.955h2.732v8.9a5.018,5.018,0,0,1-.487,2.228,3.72,3.72,0,0,1-1.486,1.589,4.816,4.816,0,0,1-2.484.591,5.172,5.172,0,0,1-3.211-.934,3.529,3.529,0,0,1-1.406-2.532h2.7a1.3,1.3,0,0,0,.607.807,2.218,2.218,0,0,0,1.184.3,1.861,1.861,0,0,0,1.35-.487,2.1,2.1,0,0,0,.5-1.557V49.591a3.046,3.046,0,0,1-1.1,1.015A3.341,3.341,0,0,1,426.03,51a3.661,3.661,0,0,1-2-.567,3.924,3.924,0,0,1-1.413-1.613,5.882,5.882,0,0,1,0-4.832,3.867,3.867,0,0,1,1.413-1.6,3.676,3.676,0,0,1,2-.559,3.429,3.429,0,0,1,1.653.383m.527,2.588a1.918,1.918,0,0,0-2.713-.058l-.05.05a2.2,2.2,0,0,0-.567,1.606,2.261,2.261,0,0,0,.567,1.622,1.9,1.9,0,0,0,2.688.083l.075-.075a2.579,2.579,0,0,0,0-3.227" transform="translate(-365.104 -38.072)"/><path class="a" d="M442.906,47.066h-6.182a1.859,1.859,0,0,0,.535,1.27,1.632,1.632,0,0,0,1.158.438,1.436,1.436,0,0,0,1.422-.862h2.907a4,4,0,0,1-2.269,2.683,4.676,4.676,0,0,1-1.964.4,4.774,4.774,0,0,1-2.332-.559,3.975,3.975,0,0,1-1.6-1.6,5.446,5.446,0,0,1-.007-4.855,3.919,3.919,0,0,1,1.589-1.6,4.817,4.817,0,0,1,2.349-.56,4.769,4.769,0,0,1,2.3.546,3.9,3.9,0,0,1,1.574,1.549,4.7,4.7,0,0,1,.567,2.349,7.1,7.1,0,0,1-.048.8m-2.749-1.52a1.4,1.4,0,0,0-.479-1.118,1.761,1.761,0,0,0-1.2-.415,1.728,1.728,0,0,0-1.158.4,1.773,1.773,0,0,0-.583,1.134Z" transform="translate(-366.167 -38.071)"/><path class="a" d="M446.913,50.6a3.536,3.536,0,0,1-1.438-1.093,2.876,2.876,0,0,1-.591-1.557h2.7a1.039,1.039,0,0,0,.432.75,1.528,1.528,0,0,0,.943.289,1.356,1.356,0,0,0,.79-.2.615.615,0,0,0,.28-.519.6.6,0,0,0-.4-.567,8.241,8.241,0,0,0-1.294-.408,11.945,11.945,0,0,1-1.6-.471,2.749,2.749,0,0,1-1.1-.782,2.132,2.132,0,0,1-.464-1.445,2.461,2.461,0,0,1,.423-1.4,2.858,2.858,0,0,1,1.247-1,4.786,4.786,0,0,1,1.956-.364,3.926,3.926,0,0,1,2.641.831,3.23,3.23,0,0,1,1.11,2.2h-2.524a1.092,1.092,0,0,0-.407-.735,1.418,1.418,0,0,0-.9-.273,1.25,1.25,0,0,0-.735.183.586.586,0,0,0-.256.5.616.616,0,0,0,.407.576,6.523,6.523,0,0,0,1.27.382,14.264,14.264,0,0,1,1.614.5,2.792,2.792,0,0,1,1.093.8,2.259,2.259,0,0,1,.487,1.477,2.342,2.342,0,0,1-.439,1.4,2.908,2.908,0,0,1-1.262.967,4.823,4.823,0,0,1-1.912.351,5.11,5.11,0,0,1-2.076-.4" transform="translate(-367.139 -38.071)"/><path class="a" d="M460.1,48.352v2.317h-1.39a3.405,3.405,0,0,1-2.316-.729,3.007,3.007,0,0,1-.831-2.368V44.026h-1.086V41.758h1.086V39.585H458.3v2.173h1.789v2.268H458.3V47.6a.75.75,0,0,0,.192.575.938.938,0,0,0,.637.176Z" transform="translate(-367.995 -37.871)"/><path class="b" d="M465.956,43.983a3.867,3.867,0,0,1,1.413-1.6,3.682,3.682,0,0,1,2-.559,3.422,3.422,0,0,1,1.654.383,2.814,2.814,0,0,1,1.093,1.006V41.954h2.732v8.914h-2.732V49.606A2.953,2.953,0,0,1,471,50.613a3.443,3.443,0,0,1-1.654.383,3.632,3.632,0,0,1-1.981-.567,3.924,3.924,0,0,1-1.413-1.613,5.882,5.882,0,0,1,0-4.832m5.591.814a1.918,1.918,0,0,0-2.713-.058l-.05.05a2.208,2.208,0,0,0-.567,1.606,2.265,2.265,0,0,0,.567,1.622,1.9,1.9,0,0,0,2.688.083l.075-.075a2.579,2.579,0,0,0,0-3.227" transform="translate(-368.974 -38.072)"/><path class="b" d="M479.45,50.6a3.54,3.54,0,0,1-1.437-1.093,2.876,2.876,0,0,1-.591-1.557h2.7a1.039,1.039,0,0,0,.432.75,1.528,1.528,0,0,0,.943.289,1.356,1.356,0,0,0,.79-.2.615.615,0,0,0,.28-.519.6.6,0,0,0-.4-.567,8.24,8.24,0,0,0-1.294-.408,11.9,11.9,0,0,1-1.6-.471,2.75,2.75,0,0,1-1.1-.782,2.127,2.127,0,0,1-.464-1.445,2.461,2.461,0,0,1,.423-1.4,2.858,2.858,0,0,1,1.247-1,4.786,4.786,0,0,1,1.956-.364,3.926,3.926,0,0,1,2.641.831,3.23,3.23,0,0,1,1.11,2.2h-2.521a1.092,1.092,0,0,0-.407-.735,1.418,1.418,0,0,0-.9-.273,1.25,1.25,0,0,0-.735.183.586.586,0,0,0-.256.5.616.616,0,0,0,.407.576,6.522,6.522,0,0,0,1.27.382,14.258,14.258,0,0,1,1.614.5,2.792,2.792,0,0,1,1.093.8,2.259,2.259,0,0,1,.487,1.477,2.343,2.343,0,0,1-.439,1.4,2.908,2.908,0,0,1-1.262.967,4.823,4.823,0,0,1-1.912.351,5.11,5.11,0,0,1-2.076-.4" transform="translate(-370.044 -38.071)"/><path class="b" d="M493.182,50.6l-2.716-3.734V50.6h-2.732V38.776h2.732v6.533l2.7-3.625h3.37l-3.707,4.472,3.734,4.441Z" transform="translate(-370.965 -37.799)"/></g><path class="a" d="M308.964,61.613l6.94,5.2,5.278-7.055a4.951,4.951,0,0,0-7.277-6.645,4.911,4.911,0,0,0-5.925,1.674,4.825,4.825,0,0,0,.9,6.765l.084.063m1.031-5.41a2.489,2.489,0,0,1,1.993-1.023,2.373,2.373,0,0,1,1.431.481l.981.731.738-.975.09-.118a2.472,2.472,0,0,1,1.638-.971,2.506,2.506,0,0,1,1.845.475,2.455,2.455,0,0,1,.97,1.632,2.568,2.568,0,0,1-.556,1.96l-3.718,4.968-4.968-3.717a2.385,2.385,0,0,1-.53-3.331c.027-.037.056-.075.085-.111" transform="translate(-275.299 -20.949)"/><path class="a" d="M304.033,14.467c8.088,1.76,13.785,9.467,13.838,9.538s5.425,7.543,6.89,11.209l2.289-.916c-1.578-3.941-6.952-11.417-7.182-11.737-.252-.347-6.287-8.537-15.31-10.5-8.641-1.873-15.026.472-16.755,1.533l-.272.166-.153.279a12.249,12.249,0,0,0-1.354,3.569c-1.77,1.2-3.921,4.058-3.892,5.737a1.864,1.864,0,0,0,.239.908c-1.693,1.864-1.526,2.443-1.387,2.9a2.195,2.195,0,0,0,1.581,1.4,4.208,4.208,0,0,0,1.174.16,5.959,5.959,0,0,0,2.275-.485,2.01,2.01,0,0,0,.5,1.042,2.417,2.417,0,0,0,1.9.763,11.626,11.626,0,0,0,3.2-.687,19.12,19.12,0,0,1,3.544-.757c.709.006,1.45.035,2.194.065,2.442.1,4.746.185,6.181-.391a13.116,13.116,0,0,0,2.164-1.275c2.7,1.847,9.955,7.38,12.338,14.88a27.067,27.067,0,0,1-2.468,21.414A20.64,20.64,0,0,1,305.74,71.9a12.42,12.42,0,0,1-2.477.706,4.8,4.8,0,0,0,1.831-2.518c.229-.866-.019-2.784-2.568-3.838a10.961,10.961,0,0,0-4.034-.362,16.211,16.211,0,0,1-4.807-.366,13.38,13.38,0,0,0-9.252.866c-.929.5-2.23-.337-2.259-.337h0l-9.361-9.111-1.719,1.764,9.5,9.233a4.921,4.921,0,0,0,5.006.619,10.772,10.772,0,0,1,7.357-.68,18.1,18.1,0,0,0,5.585.475,10.559,10.559,0,0,1,3.04.176c.922.382,1.134.815,1.129.94-.043.145-1.109,3.5-8.957,1.474-.028-.017-.058-.031-.087-.047l-.012.021c-.095-.025-.185-.047-.281-.076l-.289,1.055-.653,1.125c.1.057.2.112.3.167l-.007.026.1.026a16.794,16.794,0,0,0,8.019,2.06,15.538,15.538,0,0,0,5.824-1.116,21.407,21.407,0,0,0,2.833-1.413,5.882,5.882,0,0,1-1.081,1.365c-4.433,4.438-10.953,5.48-20.515,3.281a29.3,29.3,0,0,1-8.236-2.9c-1.794-1.058-8.136-7.061-10.843-9.628-1.613-1.526-1.755-1.658-1.916-1.768l-1.445,2c.159.133.776.719,1.663,1.559,4.807,4.548,9.5,8.9,11.283,9.961a31.415,31.415,0,0,0,8.936,3.172,40.94,40.94,0,0,0,9.119,1.151c5.768,0,10.288-1.689,13.689-5.09,1.594-1.6,2.217-3,1.9-4.295a2.668,2.668,0,0,0-.159-.458,23.918,23.918,0,0,0,5.775-6.588,29.6,29.6,0,0,0,2.7-23.413c-2.423-7.631-9.114-13.2-12.479-15.609a7.128,7.128,0,0,1,2.6-1.237l.144-2.456c-1.444-.041-3.325,1.084-5.773,2.747a18,18,0,0,1-2.253,1.4c-.949.382-3.191.3-5.173.218-.763-.029-1.531-.058-2.261-.067a13.408,13.408,0,0,0-4.294.866,20.2,20.2,0,0,1-2.283.616,9.706,9.706,0,0,1,2.031-1.937,20.9,20.9,0,0,1,4.931-.769l-.056-2.462c-.626.016-6.181.205-8.919,2.556a4.758,4.758,0,0,1-2.684,1.248,44.95,44.95,0,0,1,3.544-3.425l7.3-1.5-.5-2.411-7.852,1.617a4.522,4.522,0,0,1,1.31-1.043,61.917,61.917,0,0,1,6.5-1.908l-.574-2.392c-.143.034-2.586.621-4.687,1.261.127-.3.269-.6.415-.882,1.221-.591,6.617-2.845,14.68-1.09" transform="translate(-265.46 -11.357)"/></g></g></svg>